PathFileType	4	(X/Y/Z)	Walk4.trc
DataRate	CameraRate	NumFrames	NumMarkers	Units	OrigDataRate	OrigDataStartFrame	OrigNumFrames
200.000000	200.000000	6	59	mm	200.000000	325	583
Frame#	Times		LFHD		RFHD		CLAV		STRN		LASI		RASI		RACR1		RUA1		RElbow		RFA1		RWRR		RWRU		RCAR		LACR1		LUA1		LElbow		LFA1		LWRR		LWRU		LCAR		RTH3		RTH2		RTB1		RTB2		LTH1		LTH3		LTH2		LLFC		LMFC		LTB1		LTB3		LTB2		LTB4		LMT1		LToe		LMT5		RTB4		RTB3		RMFC		LTH4		RTH4		RMT1		RElbowM		RLFC		LBHD		RToe		RMMAL		RTH1		RCAL		RBack		LLMAL		RPSI		C7		LElbowM		T10		LPSI		LMMAL		RBHD		LCAL
			X1	Y1	Z1	X2	Y2	Z2	X3	Y3	Z3	X4	Y4	Z4	X5	Y5	Z5	X6	Y6	Z6	X7	Y7	Z7	X8	Y8	Z8	X9	Y9	Z9	X10	Y10	Z10	X11	Y11	Z11	X12	Y12	Z12	X13	Y13	Z13	X14	Y14	Z14	X15	Y15	Z15	X16	Y16	Z16	X17	Y17	Z17	X18	Y18	Z18	X19	Y19	Z19	X20	Y20	Z20	X21	Y21	Z21	X22	Y22	Z22	X23	Y23	Z23	X24	Y24	Z24	X25	Y25	Z25	X26	Y26	Z26	X27	Y27	Z27	X28	Y28	Z28	X29	Y29	Z29	X30	Y30	Z30	X31	Y31	Z31	X32	Y32	Z32	X33	Y33	Z33	X34	Y34	Z34	X35	Y35	Z35	X36	Y36	Z36	X37	Y37	Z37	X38	Y38	Z38	X39	Y39	Z39	X40	Y40	Z40	X41	Y41	Z41	X42	Y42	Z42	X43	Y43	Z43	X44	Y44	Z44	X45	Y45	Z45	X46	Y46	Z46	X47	Y47	Z47	X48	Y48	Z48	X49	Y49	Z49	X50	Y50	Z50	X51	Y51	Z51	X52	Y52	Z52	X53	Y53	Z53	X54	Y54	Z54	X55	Y55	Z55	X56	Y56	Z56	X57	Y57	Z57	X58	Y58	Z58	X59	Y59	Z59

325	1.625	-51.056	1665	-89.47	-50.134	1669.9	9.5679	-49.321	1408.9	-22.206	17.796	1249.8	-20.205	-114.92	994.11	-191.77	-79.306	994.27	167.39	-165.4	1497.5	145.78	-204.64	1337.3	268.23	-206.95	1189.9	322.74	-182.86	1038.5	342.42	-167.34	917.21	276.9	-173.47	925.62	357.96	-144.69	838.49	328.67	-165.46	1468.4	-205.44	-167.34	1291	-292.18	-131.97	1131.3	-343.74	-59.015	1012.2	-349.8	32.718	921.82	-284.42	0.94335	887.89	-342.49	81.449	850.81	-316.93	-28.487	645.36	200.28	-21.862	750.59	197.25	66.185	422	128.52	34.677	335.38	179.4	-198.06	759.8	-206.11	-200.03	591.13	-176.22	-141.01	677.67	-179.13	-225.13	506.8	-168.5	-196.67	500.76	-13.783	-174.41	374.63	-105.43	-224.11	215.22	-64.497	-228.79	291.11	-136.05	-194.75	295.74	-83.871	-192.25	36.233	-57.565	-142	23.989	-103.55	-267.37	25.632	-127.35	60.409	335.84	123.71	55.391	250.36	118.17	2.0705	535.6	37.684	-200.19	676.21	-190.88	-70.247	720.03	212.33	151.78	70.764	106.57	-262.6	1119	228.36	-7.5197	537.63	193.11	-200.9	1586.4	-96.559	183.81	86.548	146.39	25.925	112.87	60.949	-114.65	794.67	219.37	-66.482	65.334	87.417	-310.57	1377.8	90.695	-347.4	80.602	-52.465	-351.21	1034.2	38.891	-242.67	1489.4	-26.353	-183.47	1057.6	-253.68	-308.6	1175.5	-4.8636	-350.47	1048.8	-45.29	-310.76	85.781	29.746	-185.49	1598.9	50.911	-394.9	58.206	10.975
326	1.63	-45.04	1664.2	-89.025	-44.16	1669.1	10.026	-43.282	1407.8	-22.021	23.706	1248.8	-20.232	-109.77	993.47	-191.84	-72.91	993.06	167.28	-159.21	1496.5	146.03	-198.89	1336.4	268.44	-201.66	1189	322.92	-178.12	1037.5	342.53	-163.1	916.14	276.97	-169.18	924.56	358.04	-140.82	837.27	328.71	-159.38	1467.5	-205.2	-160.23	1290.3	-292.19	-123.66	1131	-344	-49.735	1012.6	-349.97	42.569	923.04	-284.39	11.303	888.84	-342.57	92.144	852.65	-316.79	-22.59	644.14	199.58	-15.961	749.38	196.7	75.899	422.85	127.77	47.255	335.45	178.88	-193.63	759.18	-206.19	-196.26	590.52	-176.37	-136.89	676.82	-179.31	-221.72	506.24	-168.59	-192.92	500	-13.934	-171.82	373.65	-105.47	-222.69	214.66	-64.45	-226.83	290.55	-136.02	-192.73	294.95	-83.863	-192.15	36.193	-57.609	-141.93	23.923	-103.66	-267.32	25.669	-127.25	72.929	336.56	123.16	70.665	250.95	117.87	8.0598	534.04	36.741	-196.09	675.59	-190.99	-64.26	718.82	212.02	172.7	74.393	106.29	-257.52	1118.3	228.5	-0.73787	536.42	192.25	-194.84	1585.5	-96.253	204.28	91.043	146.06	45.505	112.49	60.927	-108.58	793.48	219.31	-45.305	62.193	87.661	-304.48	1377	91.044	-346.96	80.952	-52.299	-345.2	1033.4	39.463	-236.61	1488.5	-26.091	-175.11	1056.8	-254.38	-302.64	1174.7	-4.2573	-344.71	1048.1	-44.584	-310.26	85.925	29.924	-179.51	1598	51.234	-394.58	58.73	11.18
327	1.635	-38.995	1663.4	-88.555	-38.16	1668.1	10.51	-37.216	1406.8	-21.814	29.637	1247.7	-20.241	-104.63	992.78	-191.97	-66.508	991.79	167.24	-152.99	1495.6	146.31	-193.1	1335.5	268.67	-196.34	1188.1	323.11	-173.34	1036.5	342.64	-158.83	915.05	277.05	-164.85	923.46	358.12	-136.92	836.04	328.75	-153.28	1466.6	-204.93	-153.13	1289.7	-292.17	-115.42	1130.8	-344.21	-40.561	1013	-350.1	52.319	924.23	-284.36	21.544	889.75	-342.62	102.71	854.46	-316.65	-16.837	642.77	198.91	-10.14	748.01	196.15	85.415	423.69	127	59.675	335.6	178.35	-189.2	758.54	-206.25	-192.48	589.89	-176.52	-132.76	675.94	-179.49	-218.32	505.66	-168.66	-189.15	499.21	-14.075	-169.21	372.66	-105.51	-221.27	214.09	-64.4	-224.85	289.98	-136	-190.7	294.14	-83.857	-192.05	36.156	-57.65	-141.86	23.862	-103.77	-267.28	25.703	-127.14	85.231	337.36	122.58	85.701	251.68	117.53	13.879	532.31	35.827	-191.98	674.95	-191.08	-58.37	717.47	211.7	193.26	78.364	105.84	-252.41	1117.6	228.65	5.9294	535.1	191.42	-188.76	1584.6	-95.924	224.4	95.873	145.53	64.819	112.4	60.861	-102.57	792.19	219.24	-24.291	59.391	87.917	-298.36	1376.1	91.42	-346.53	81.313	-52.134	-339.15	1032.6	40.082	-230.52	1487.6	-25.808	-166.8	1055.9	-255.02	-296.64	1173.9	-3.6251	-338.92	1047.3	-43.841	-309.77	86.075	30.101	-173.5	1597	51.581	-394.27	59.269	11.379
328	1.64	-32.921	1662.5	-88.059	-32.133	1667.2	11.021	-31.121	1405.7	-21.581	35.589	1246.6	-20.232	-99.523	992.03	-192.16	-60.098	990.45	167.27	-146.74	1494.6	146.6	-187.29	1334.6	268.92	-190.99	1187.2	323.33	-168.53	1035.4	342.76	-154.52	913.94	277.14	-160.48	922.35	358.22	-132.99	834.77	328.79	-147.15	1465.6	-204.63	-146.06	1289	-292.1	-107.25	1130.4	-344.38	-31.498	1013.3	-350.21	61.966	925.38	-284.32	31.662	890.64	-342.65	113.15	856.23	-316.51	-11.216	641.23	198.29	-4.39	746.47	195.59	94.738	424.51	126.23	71.925	335.8	177.81	-184.76	757.88	-206.31	-188.69	589.25	-176.66	-128.62	675.04	-179.67	-214.9	505.07	-168.72	-185.36	498.38	-14.204	-166.59	371.66	-105.56	-219.85	213.52	-64.349	-222.86	289.4	-135.97	-188.66	293.32	-83.851	-191.95	36.123	-57.687	-141.8	23.805	-103.87	-267.23	25.735	-127.02	97.305	338.22	121.98	100.48	252.57	117.15	19.537	530.41	34.946	-187.87	674.3	-191.16	-52.57	716	211.38	213.43	82.648	105.23	-247.27	1116.9	228.82	12.498	533.7	190.62	-182.65	1583.7	-95.57	244.13	101.01	144.81	83.829	112.61	60.747	-96.602	790.79	219.14	-3.4878	56.923	88.169	-292.21	1375.2	91.82	-346.09	81.687	-51.971	-333.05	1031.8	40.747	-224.42	1486.6	-25.5	-158.54	1055	-255.58	-290.61	1173.1	-2.9695	-333.09	1046.4	-43.061	-309.28	86.23	30.275	-167.48	1596	51.954	-393.96	59.827	11.569
329	1.645	-26.818	1661.6	-87.536	-26.079	1666.2	11.561	-24.997	1404.6	-21.322	41.564	1245.5	-20.204	-94.429	991.23	-192.41	-53.678	989.04	167.37	-140.48	1493.6	146.92	-181.46	1333.7	269.2	-185.61	1186.2	323.56	-163.67	1034.3	342.9	-150.17	912.81	277.23	-156.07	921.22	358.32	-129.02	833.49	328.83	-140.99	1464.7	-204.3	-139.01	1288.3	-292	-99.171	1130.1	-344.5	-22.548	1013.6	-350.28	71.508	926.5	-284.27	41.655	891.5	-342.66	123.45	857.97	-316.37	-5.7092	639.55	197.72	1.3005	744.78	195.03	103.88	425.31	125.46	83.989	336.07	177.26	-180.31	757.2	-206.34	-184.89	588.58	-176.79	-124.47	674.13	-179.84	-211.47	504.46	-168.77	-181.54	497.53	-14.324	-163.95	370.64	-105.61	-218.44	212.94	-64.295	-220.87	288.81	-135.95	-186.62	292.49	-83.847	-191.86	36.094	-57.719	-141.74	23.754	-103.97	-267.18	25.764	-126.9	109.14	339.14	121.36	114.97	253.59	116.72	25.046	528.37	34.101	-183.74	673.62	-191.23	-46.848	714.41	211.05	233.16	87.209	104.46	-242.09	1116.2	229.01	18.984	532.22	189.85	-176.51	1582.8	-95.188	263.43	106.41	143.89	102.5	113.08	60.579	-90.67	789.29	219.01	17.053	54.78	88.4	-286.04	1374.2	92.244	-345.66	82.074	-51.813	-326.91	1030.9	41.457	-218.29	1485.6	-25.168	-150.34	1054.2	-256.06	-284.54	1172.2	-2.2931	-327.21	1045.6	-42.246	-308.8	86.394	30.446	-161.43	1594.9	52.355	-393.65	60.406	11.747
330	1.65	-20.688	1660.7	-86.984	-19.999	1665.2	12.129	-18.843	1403.5	-21.036	47.562	1244.3	-20.156	-89.353	990.38	-192.71	-47.246	987.56	167.52	-134.19	1492.5	147.27	-175.61	1332.7	269.5	-180.2	1185.2	323.8	-158.77	1033.2	343.04	-145.78	911.67	277.34	-151.62	920.06	358.44	-125	832.18	328.88	-134.81	1463.7	-203.93	-131.97	1287.6	-291.87	-91.174	1129.7	-344.57	-13.713	1013.9	-350.32	80.943	927.59	-284.21	51.519	892.32	-342.64	133.62	859.65	-316.24	-0.29326	637.74	197.19	6.9457	742.95	194.45	112.84	426.09	124.69	95.851	336.39	176.71	-175.84	756.49	-206.37	-181.07	587.9	-176.91	-120.32	673.18	-180.01	-208.04	503.84	-168.82	-177.71	496.65	-14.437	-161.3	369.6	-105.67	-217.03	212.36	-64.239	-218.86	288.22	-135.93	-184.57	291.65	-83.844	-191.77	36.069	-57.748	-141.69	23.706	-104.05	-267.14	25.791	-126.77	120.74	340.1	120.72	129.17	254.73	116.25	30.422	526.21	33.297	-179.6	672.92	-191.3	-41.19	712.71	210.72	252.4	91.997	103.54	-236.86	1115.4	229.21	25.407	530.7	189.11	-170.35	1581.8	-94.779	282.26	112.03	142.8	120.79	113.81	60.354	-84.768	787.7	218.84	37.272	52.949	88.59	-279.84	1373.2	92.689	-345.22	82.477	-51.661	-320.73	1030	42.211	-212.13	1484.6	-24.807	-142.19	1053.3	-256.47	-278.44	1171.2	-1.5986	-321.3	1044.6	-41.398	-308.32	86.569	30.612	-155.36	1593.8	52.784	-393.35	61.008	11.91
